<?xml version="1.0" encoding="UTF-8"?>
<!DOCTYPE svg PUBLIC "-//W3C//DTD SVG 1.1//EN" "http://www.w3.org/Graphics/SVG/1.1/DTD/svg11.dtd">
<svg xmlns="http://www.w3.org/2000/svg" xml:space="preserve" width="84.6666mm" height="42.5026mm" version="1.1" style="shape-rendering:geometricPrecision; text-rendering:geometricPrecision; image-rendering:optimizeQuality; fill-rule:evenodd; clip-rule:evenodd"
viewBox="0 0 8467 4250"
 xmlns:xlink="http://www.w3.org/1999/xlink"
 baseProfile="full"
 enable-background="new 0 0 1952.00 734.93"
 xmlns:serif="http://www.serif.com/">
 <defs>
  <style type="text/css">
   <![CDATA[
    .fil0 {fill:none}
    .fil1 {fill:black}
    .fil2 {fill:black}
   ]]>
  </style>
 </defs>
 <g>
  <rect id="NativeScript-Vue-Green-White" class="fil0" x="-9128" y="-9939" width="8435" height="6321" serif:id="NativeScript-Vue Green White"/>
  <g id="_401985320">
   <g>
    <path id="babel.svg" class="fil1" d="M2556 2076c-2,-12 -33,-51 -93,-117 -1,-13 21,-32 64,-57l123 -109c27,-36 44,-91 49,-168l-2 -19c-5,-55 -44,-99 -119,-133 -45,-30 -125,-46 -239,-48 -96,7 -220,41 -374,101 -42,30 -90,60 -144,90l1 10 15 -6c5,0 9,2 10,8l9 -5 5 -1 0 5c0,5 -33,31 -124,95l-4 9c-22,1 -43,17 -65,47l6 8 18 -6 13 17c22,-23 46,-44 72,-61 14,3 21,7 31,11 73,-53 144,-92 215,-116l1 10c-14,19 -23,30 -27,30l7 16c1,13 -180,495 -471,1021l6 13c25,-6 41,-12 53,-18l1 9 28 -2 -47 124 10 4c40,-45 70,-91 92,-132 118,-35 207,-69 270,-102 62,-6 110,-22 142,-50l65 -33c90,-69 157,-118 203,-147 94,-69 156,-136 184,-202l16 -96 0 0zm-244 163l-125 98c-92,60 -142,92 -148,92 -146,80 -238,122 -273,125l-4 0c3,-16 68,-150 195,-401 55,-4 143,-30 262,-77l29 -2c60,-6 106,6 135,34l2 19c-22,63 -47,101 -73,112l0 0zm77 -409c-13,16 -48,42 -106,79 -19,2 -90,29 -213,83l-20 -3 0 -9c-2,-17 6,-40 24,-67 9,-49 19,-79 31,-85l102 -232c-1,-15 21,-24 66,-32l15 -2 0 13 82 -11c82,-7 124,10 128,49l9 -1 -2 -23 10 -1c25,13 37,28 39,48 1,13 -6,29 -21,48 -6,1 -10,-4 -11,-13l-9 1 -3 28c-41,62 -71,93 -89,95l-32 35z"/>
   </g>
   <g>
    <path id="bitbucket.svg" class="fil1" d="M4194 1425c25,5 42,29 40,58l-62 415 -131 898c-5,25 -23,42 -45,42l-938 0c-22,0 -40,-17 -45,-42l-131 -898 -62 -415c-2,-29 15,-53 41,-58l1333 0 0 0zm-520 937l72 -464 -438 0 72 464 294 0z"/>
   </g>
   <path id="git.svg" class="fil1" d="M40 3443l409 -410 119 120c-17,61 11,126 66,158l0 392c-42,24 -71,70 -71,123 0,78 64,141 142,141 78,0 141,-63 141,-141 0,-53 -28,-99 -70,-123l0 -344 146 148c-5,11 -5,23 -5,36 0,78 63,141 142,141 78,0 141,-63 141,-141 0,-79 -63,-142 -141,-142 -13,0 -25,0 -36,5l-182 -182c19,-66 -15,-138 -81,-165 -30,-12 -62,-14 -91,-7l-120 -119 56 -55c55,-56 144,-56 200,0l565 565c56,55 56,144 0,199l-565 566c-56,56 -145,56 -200,0l-565 -566c-56,-55 -56,-144 0,-199z"/>
   <g>
    <path id="github-face.svg" class="fil1" d="M8353 473c11,-28 48,-141 -12,-293 0,0 -93,-27 -304,114 -89,-23 -183,-27 -277,-27 -93,0 -188,4 -276,27 -211,-143 -304,-114 -304,-114 -60,152 -23,265 -11,293 -72,77 -116,175 -116,296 0,455 295,558 707,558 410,0 707,-103 707,-558 0,-121 -43,-219 -114,-296l0 0zm-593 767c-291,0 -528,-13 -528,-296 0,-67 34,-131 90,-183 95,-87 257,-41 438,-41 184,0 343,-46 439,41 56,52 92,115 92,183 0,282 -239,296 -531,296l0 0zm-222 -443c-58,0 -106,71 -106,157 0,87 48,159 106,159 59,0 106,-71 106,-159 0,-87 -47,-157 -106,-157l0 0zm444 0c-58,0 -106,70 -106,157 0,88 48,159 106,159 58,0 106,-71 106,-159 0,-87 -45,-157 -106,-157z"/>
   </g>
   <polygon id="language-css3.svg" class="fil1" points="5851,80 5805,318 6772,318 6740,471 5775,471 5728,708 6694,708 6640,979 6250,1108 5913,979 5936,863 5699,863 5642,1147 6201,1360 6844,1147 6930,718 6947,632 7056,80 "/>
   <g>
    <path id="language-html5.svg" class="fil1" d="M4938 1157l320 -89 43 -479 -569 0 -14 -159 597 0 16 -157 -786 0 44 473 542 0 -18 202 -175 47 -174 -47 -11 -130 -157 0 22 250 320 89 0 0zm-623 -1144l1246 0 -112 1273 -511 141 -510 -141 -113 -1273z"/>
   </g>
   <g>
    <path id="language-javascript.svg" class="fil1" d="M-2 13l1414 0 0 1414 -1414 0 0 -1414 0 0zm371 1182c32,67 94,122 200,122 118,0 199,-63 199,-201l0 -454 -134 0 0 451c0,68 -27,85 -71,85 -45,0 -64,-31 -85,-68l-109 65 0 0zm470 -14c39,77 119,136 243,136 126,0 220,-66 220,-186 0,-111 -64,-160 -177,-209l-33 -14c-57,-24 -82,-41 -82,-80 0,-32 25,-57 64,-57 38,0 63,16 86,57l103 -68c-44,-76 -105,-105 -189,-105 -119,0 -195,76 -195,175 0,109 64,160 160,201l33 14c61,26 97,43 97,89 0,37 -35,65 -90,65 -65,0 -103,-34 -131,-81l-109 63z"/>
   </g>
   <path class="fil1" d="M2346 3212c-45,-110 -104,-200 -136,-223 -31,-24 -94,-153 -94,-153 0,0 1,205 1,437l-1 -437c0,0 -62,129 -95,153 -31,23 -90,113 -136,223 -45,111 -107,392 -36,557 70,163 214,301 216,304 12,45 34,171 28,177l67 0 11 -181c25,-24 149,-152 213,-300 70,-165 8,-445 -38,-557z"/>
   <g>
    <path id="nativescript.svg" class="fil1" d="M5997 2836l707 0c197,0 354,157 354,353l0 707c0,196 -157,354 -354,354l-707 0c-196,0 -353,-158 -353,-354l0 -707c0,-196 157,-353 353,-353l0 0zm-118 824l0 236c0,65 53,118 118,118l118 0 0 -589 471 589 118 0c65,0 118,-53 118,-118l0 -236c0,-65 53,-117 118,-117 -65,0 -118,-53 -118,-118l0 -236c0,-65 -53,-118 -118,-118l-118 0 0 589 -471 -589 -118 0c-65,0 -118,53 -118,118l0 236c0,65 -52,118 -117,118 65,0 117,52 117,117l0 0z"/>
   </g>
   <g>
    <path id="nodejs.svg" class="fil1" d="M3546 1c-19,0 -38,5 -54,14l-518 299c-34,20 -55,56 -55,95l0 598c0,38 21,75 55,94l135 78c67,32 89,33 120,33 97,0 154,-59 154,-162l0 -590c0,-9 -7,-16 -16,-16l-65 0c-9,0 -16,7 -16,16l0 590c0,46 -47,91 -123,53l-143 -82c-5,-3 -7,-9 -7,-14l0 -598c0,-6 2,-12 7,-15l519 -299c4,-2 11,-2 15,0l518 299c5,3 8,9 8,15l0 598c0,5 -3,11 -8,14l-518 299c-4,3 -11,3 -16,0l-131 -79c-6,-3 -11,-3 -15,-1 -37,21 -44,25 -78,35 -8,3 -21,8 5,23l173 102c17,10 35,15 54,15 20,0 38,-5 55,-15l518 -299c33,-19 54,-56 54,-94l0 -598c0,-39 -21,-75 -54,-95l-518 -299c-16,-9 -35,-14 -55,-14l0 0zm140 428c-148,0 -237,62 -237,167 0,112 88,144 230,158 169,17 183,42 183,76 0,57 -47,82 -156,82 -137,0 -167,-34 -177,-103 -2,-7 -8,-12 -16,-12l-66 0c-9,0 -15,6 -15,15 0,87 47,191 274,191 164,0 258,-65 258,-178 0,-112 -75,-141 -235,-163 -160,-20 -177,-32 -177,-69 0,-32 14,-73 134,-73 104,0 145,23 161,94 1,7 8,12 15,12l67 0c4,0 8,-1 11,-5 3,-2 5,-7 3,-11 -10,-124 -92,-181 -257,-181z"/>
   </g>
   <path class="fil1" d="M5272 2302l41 -103 118 0 -56 -157 70 -177 200 533 -148 0 -34 -96 -191 0zm-126 96l214 -533 -142 0 -147 344 -104 -344 -110 0 -112 344 -79 -156 -71 220 72 125 140 0 102 -309 96 309 141 0zm-780 -183l88 0c27,0 50,-3 71,-9l23 -70 63 -195c-5,-8 -10,-15 -17,-22 -32,-36 -80,-54 -142,-54l-221 0 0 533 135 0 0 -183zm116 -227c13,13 19,30 19,51 0,22 -5,39 -16,52 -13,14 -35,21 -68,21l-51 0 0 -143 51 0c31,0 53,6 65,19z"/>
   <g>
    <path id="react.svg" class="fil1" d="M7762 3418c68,0 123,56 123,125 0,65 -55,121 -123,121 -68,0 -123,-56 -123,-121 0,-69 55,-125 123,-125l0 0zm-305 651c42,25 133,-13 237,-112 -34,-39 -68,-81 -99,-125 -54,-5 -107,-13 -158,-24 -34,141 -21,238 20,261l0 0zm47 -378l-19 -33c-7,19 -15,38 -19,56 18,4 37,7 58,11 -7,-11 -13,-23 -20,-34l0 0zm430 -50l53 -98 -53 -99c-20,-35 -41,-66 -60,-97 -35,-2 -73,-2 -112,-2 -40,0 -77,0 -113,2 -19,31 -40,62 -59,97l-54 99 54 98c19,35 40,66 59,97 36,2 73,2 113,2 39,0 77,0 112,-2 19,-31 40,-62 60,-97l0 0zm-172 -442c-13,15 -26,30 -39,48 13,0 26,0 39,0 13,0 25,0 39,0 -14,-18 -27,-33 -39,-48l0 0zm0 687c12,-15 25,-30 39,-47 -14,0 -26,0 -39,0 -13,0 -26,0 -39,0 13,17 26,32 39,47l0 0zm304 -870c-41,-25 -132,14 -236,112 34,39 67,81 99,125 54,5 107,13 158,24 33,-141 21,-238 -21,-261l0 0zm-46 378l19 34c7,-20 14,-39 19,-57 -18,-4 -38,-7 -58,-11 6,12 13,23 20,34l0 0zm95 -464c97,56 107,201 66,371 167,49 288,130 288,242 0,111 -121,192 -288,242 41,169 31,315 -66,370 -96,55 -227,-8 -353,-128 -126,120 -257,183 -354,128 -96,-55 -107,-201 -66,-370 -167,-50 -287,-131 -287,-242 0,-112 120,-193 287,-242 -41,-170 -30,-315 66,-371 97,-55 228,8 354,129 126,-121 257,-184 353,-129l0 0zm-19 613c22,49 42,98 58,148 139,-41 216,-100 216,-148 0,-48 -77,-108 -216,-149 -16,50 -36,99 -58,149l0 0zm-668 0c-23,-50 -42,-99 -59,-149 -138,41 -216,101 -216,149 0,48 78,107 216,148 17,-50 36,-99 59,-148l0 0zm592 148c-7,11 -14,23 -20,34 20,-4 40,-7 58,-11 -5,-18 -12,-37 -19,-56l-19 33 0 0zm-190 266c104,99 195,137 236,112 42,-23 54,-120 21,-261 -51,11 -104,19 -158,24 -32,44 -65,86 -99,125l0 0zm-326 -563c7,-11 13,-22 20,-34 -21,4 -40,7 -58,11 4,18 12,37 19,57l19 -34 0 0zm190 -266c-104,-98 -195,-137 -237,-112 -41,23 -54,120 -20,261 51,-11 104,-19 158,-24 31,-44 65,-86 99,-125z"/>
   </g>
   <path id="rest-api.svg" class="fil1" d="M6186 1425c-18,0 -31,12 -33,30l-20 186c-47,19 -90,43 -128,73l-168 -75c-17,-8 -35,-3 -44,13l-146 252c-9,16 -4,36 11,46l150 109c-3,24 -7,47 -7,72 0,26 4,49 7,73l-150 109c-15,10 -20,30 -11,46l146 252c9,16 27,21 44,13l168 -75c38,30 81,54 128,73l20 186c2,18 15,30 33,30l291 0c19,0 32,-12 34,-30l19 -186c47,-19 90,-43 129,-73l168 75c16,8 35,3 44,-13l146 -252c9,-16 3,-36 -12,-46l-150 -109c4,-24 7,-47 7,-73 0,-25 -3,-48 -7,-72l150 -109c15,-10 21,-30 12,-46l-146 -252c-9,-16 -28,-21 -44,-13l-168 75c-39,-30 -82,-54 -129,-73l-19 -186c-2,-18 -15,-30 -34,-30l-291 0zm-190 494l71 0 141 495 -71 0 -40 -141 -132 0 -40 141 -71 0 142 -495zm283 0l70 0 71 0c78,0 141,64 141,142 0,78 -63,141 -141,141l-71 0 0 212 -70 0 0 -495zm353 0l71 0 0 495 -71 0 0 -495zm-283 71l0 141 71 0c39,0 71,-31 71,-70 0,-39 -32,-71 -71,-71l-71 0zm-318 53l-46 159 93 0 -47 -159z"/>
   <g>
    <path id="sass.svg" class="fil1" d="M2116 13c390,0 707,317 707,707 0,391 -317,707 -707,707 -390,0 -707,-316 -707,-707 0,-390 317,-707 707,-707l0 0zm-141 943c11,38 9,73 0,106 0,3 -3,7 -5,12 -1,0 -3,5 -5,8 -7,17 -19,34 -32,48 -41,45 -100,62 -123,48 -27,-16 -12,-79 34,-130 51,-53 125,-89 125,-89l0 0 6 -3 0 0zm584 -640c-32,-126 -240,-167 -437,-97 -117,42 -244,107 -336,192 -108,102 -125,191 -118,227 24,130 203,216 277,279l0 1c-21,10 -180,90 -218,172 -38,86 7,149 35,157 95,26 191,-20 242,-97 49,-74 46,-169 24,-218 29,-7 64,-10 108,-5 124,15 148,92 143,124 -4,33 -30,50 -39,56 -8,5 -11,7 -10,11 0,6 5,6 12,5 10,-2 66,-26 68,-87 2,-76 -70,-161 -199,-159 -53,2 -86,7 -110,16l-6 -6c-80,-85 -227,-145 -221,-260 3,-42 17,-151 283,-283 218,-109 393,-80 423,-12 43,94 -93,270 -319,295 -87,10 -133,-24 -144,-36 -12,-12 -13,-14 -18,-12 -7,5 -3,16 0,23 7,18 35,48 82,65 41,13 143,21 265,-27 138,-53 245,-200 213,-324z"/>
   </g>
   <path id="spa.svg" class="fil1" d="M7129 1526c-42,0 -76,33 -76,75l0 1061c0,41 34,75 76,75l1263 0c41,0 75,-34 75,-75l0 -1061c0,-42 -34,-75 -75,-75l-1263 0zm0 50l1263 0c14,0 25,11 25,25l0 1061c0,14 -11,25 -25,25l-1263 0c-14,0 -25,-11 -25,-25l0 -834 1035 0c14,0 25,-11 25,-25 0,-14 -11,-25 -25,-25l-1035 0 0 -177c0,-14 11,-25 25,-25zm76 51c-14,0 -25,11 -25,25l0 50c0,14 11,25 25,25 14,0 25,-11 25,-25l0 -50c0,-14 -11,-25 -25,-25zm126 0c-14,0 -25,11 -25,25l0 50c0,14 11,25 25,25 14,0 25,-11 25,-25l0 -50c0,-14 -11,-25 -25,-25zm126 0c-14,0 -25,11 -25,25l0 50c0,14 11,25 25,25 14,0 26,-11 26,-25l0 -50c0,-14 -12,-25 -26,-25zm127 0c-14,0 -26,11 -26,25l0 50c0,14 12,25 26,25 14,0 25,-11 25,-25l0 -50c0,-14 -11,-25 -25,-25zm126 0c-14,0 -25,11 -25,25l0 50c0,14 11,25 25,25 14,0 25,-11 25,-25l0 -50c0,-14 -11,-25 -25,-25zm126 0c-14,0 -25,11 -25,25l0 50c0,14 11,25 25,25 14,0 25,-11 25,-25l0 -50c0,-14 -11,-25 -25,-25zm126 0c-14,0 -25,11 -25,25l0 50c0,14 11,25 25,25 14,0 26,-11 26,-25l0 -50c0,-14 -12,-25 -26,-25zm127 0c-14,0 -26,11 -26,25l0 50c0,14 12,25 26,25 14,0 25,-11 25,-25l0 -50c0,-14 -11,-25 -25,-25zm126 0c-14,0 -25,11 -25,25l0 50c0,14 11,25 25,25 14,0 25,-11 25,-25l0 -50c0,-14 -11,-25 -25,-25zm126 0c-14,0 -25,11 -25,25l0 50c0,14 11,25 25,25 14,0 25,-11 25,-25l0 -50c0,-14 -11,-25 -25,-25zm-101 151c-14,0 -25,11 -25,25 0,14 11,25 25,25l101 0c14,0 25,-11 25,-25 0,-14 -11,-25 -25,-25l-101 0zm-959 151c-14,0 -26,12 -26,26l0 101c0,14 12,25 26,25l959 0c14,0 25,-11 25,-25l0 -101c0,-14 -11,-26 -25,-26l-959 0zm25 51l909 0 0 50 -909 0 0 -50zm-25 202c-14,0 -26,11 -26,25 0,14 12,25 26,25l404 0c14,0 25,-11 25,-25 0,-14 -11,-25 -25,-25l-404 0zm555 0c-14,0 -25,11 -25,25l0 303c0,14 11,25 25,25l404 0c14,0 25,-11 25,-25l0 -303c0,-14 -11,-25 -25,-25l-404 0zm25 50l354 0 0 253 -354 0 0 -253zm-580 51c-14,0 -26,11 -26,25 0,14 12,25 26,25l202 0c14,0 25,-11 25,-25 0,-14 -11,-25 -25,-25l-202 0zm303 0c-14,0 -26,11 -26,25 0,14 12,25 26,25l50 0c14,0 25,-11 25,-25 0,-14 -11,-25 -25,-25l-50 0zm-303 101c-14,0 -26,11 -26,25 0,14 12,25 26,25l404 0c14,0 25,-11 25,-25 0,-14 -11,-25 -25,-25l-404 0zm0 101c-14,0 -26,11 -26,25 0,14 12,25 26,25l151 0c14,0 25,-11 25,-25 0,-14 -11,-25 -25,-25l-151 0z"/>
   <g>
    <path id="vuejs.svg" class="fil1" d="M2822 2906l247 0 459 849 460 -849 247 0 -707 1273 -706 -1273 0 0zm318 0l212 0 176 324 177 -324 212 0 -389 713 -388 -713z"/>
   </g>
   <g>
    <path id="webpack.svg" class="fil1" d="M1341 2457c0,27 -15,51 -37,63l-559 314c-11,8 -25,12 -40,12 -15,0 -29,-4 -40,-12l-559 -314c-23,-12 -37,-36 -37,-63l0 -636c0,-27 14,-50 37,-62l559 -314c11,-8 25,-13 40,-13 15,0 29,5 40,13l559 314c22,12 37,35 37,62l0 636 0 0zm-636 -873l-495 279 0 553 495 278 495 -278 0 -553 -495 -279 0 0zm0 147l346 200 -346 200 -347 -200 347 -200 0 0zm353 613l-282 163 0 -253 282 -164 0 254 0 0zm-424 163l-283 -163 0 -254 283 164 0 253z"/>
   </g>
   <path class="fil2" d="M4684 3395l62 103 -197 344 -126 0 261 -447 0 0zm27 -381l398 688 323 -560 215 0 0 2 -536 927 -4 0 -423 -732 -289 501 -162 2 478 -828zm274 128l124 215 125 -215 166 0 -291 514 -296 -514 172 0 0 0z"/>
  </g>
 </g>
</svg>
